# xmcd
#
# Track frame offsets:
# 150
# 9427
# 19863
# 33450
# 44920
# 55238
# 67694
# 77459
# 86949
# 99778
# 108774
# 118961
#
# Disc length: 1714 seconds
#
#
# Revision: 1
# Processed by: cddbd v1.5.1PL2 Copyright (c) Steve Scherf et al.
# Submitted via: FreeRIP 2.945 
#
DISCID=9006b00c
DTITLE=Chuck Wagon Gang - Gospel Classics Hall Of Fame Series (Vol 2)
DYEAR=1999
DGENRE=Gospel
TTITLE0=A Great Day
TTITLE1=He's A Friend
TTITLE2=Hard Trials Will Soon Be Over
TTITLE3=It's All Right Now
TTITLE4=Hear The Gospel Story And Believe
TTITLE5=I Can Call Jesus Anytime
TTITLE6=I've A Precious Friend
TTITLE7=Let Us Bow Before The Lord
TTITLE8=When I Looked Up And He Looked Down
TTITLE9=Just Inside The Gate
TTITLE10=The Worlds Greatest Story
TTITLE11=Why Oh Why Not Tonight
EXTD=Gospel Music Hall Of Fame
EXTT0=
EXTT1=
EXTT2=
EXTT3=
EXTT4=
EXTT5=
EXTT6=
EXTT7=
EXTT8=
EXTT9=
EXTT10=
EXTT11=
PLAYORDER=
